# Blender 3.5.0
# www.blender.org
mtllib LV1Turret.mtl
o Cube
v -1.000000 1.867979 1.000000
v -1.000000 3.867979 1.000000
v -1.000000 1.867979 -1.000000
v -1.000000 3.867979 -1.000000
v 1.000000 1.867979 1.000000
v 1.000000 3.867979 1.000000
v 1.000000 1.867979 -1.000000
v 1.000000 3.867979 -1.000000
v 1.000000 1.867979 0.851916
v -1.000000 1.867979 0.851916
v 1.000000 3.605139 0.851916
v -1.000000 3.605139 0.851916
v 1.000000 3.605139 -0.851916
v -1.000000 3.605139 -0.851916
v 1.000000 1.867979 -0.851916
v -1.000000 1.867979 -0.851916
v -0.738020 2.133327 -1.000000
v -0.738020 3.602630 -1.000000
v -0.738020 1.879375 -1.000000
v 0.738020 3.602630 -1.000000
v 0.738020 1.879375 -1.000000
v 0.738020 2.133327 -1.000000
v 0.738020 2.133327 1.000000
v 0.738020 3.602630 1.000000
v -0.738020 1.879375 1.000000
v -0.738020 2.133327 1.000000
v 0.738020 1.879375 1.000000
v -0.738020 3.602630 1.000000
v -0.738020 2.133327 -0.851916
v 0.738020 3.602630 -0.851916
v -0.738020 3.602630 -0.851916
v -0.738020 1.879375 -0.851916
v 0.738020 2.133327 -0.851916
v 0.738020 1.879375 -0.851916
v -0.738020 3.602630 0.851916
v 0.738020 2.133327 0.851916
v 0.738020 3.602630 0.851916
v -0.738020 1.879375 0.851916
v -0.738020 2.133327 0.851916
v 0.738020 1.879375 0.851916
v -0.738020 1.901332 -1.000000
v -0.738020 3.475596 -1.000000
v 0.738020 2.260361 -1.000000
v 0.610404 3.602630 -1.000000
v -0.738020 1.867979 -1.000000
v 0.738020 1.867979 -1.000000
v -0.738020 2.111371 1.000000
v 0.738020 3.475596 1.000000
v -0.738020 2.260361 1.000000
v -0.610404 3.602630 1.000000
v -0.738020 1.867979 1.000000
v 0.738020 1.867979 1.000000
v 0.738020 1.867979 -0.851916
v -0.738020 1.867979 -0.851916
v 0.520012 3.602630 -0.851916
v 0.738020 2.095819 -0.851916
v -0.520012 3.602630 0.851916
v -0.738020 2.350339 0.851916
v 0.738020 3.385618 0.851916
v 0.738020 1.916883 0.851916
v -0.738020 1.867979 0.851916
v 0.738020 1.867979 0.851916
v -0.738020 3.467309 -0.986362
v -0.738020 1.902764 -0.986362
v -0.738020 2.109938 0.986362
v 0.738020 1.914719 0.872525
v 0.738020 2.097983 -0.872525
v 0.738020 2.268648 -0.986362
v 1.000000 0.291282 1.000000
v 1.000000 0.291282 0.851916
v -1.000000 0.291282 1.000000
v -1.000000 0.291282 0.851916
v -1.185067 0.291282 -1.203553
v -1.185067 0.291282 -1.055469
v -0.923087 0.291282 -1.203553
v 1.202029 0.291282 -1.203553
v 0.940048 0.291282 -1.203553
v -0.738020 0.291282 1.000000
v 0.738020 0.291282 1.000000
v 0.940048 0.291282 -1.055469
v -0.923087 0.291282 -1.055469
v -0.738020 0.291282 0.851916
v 0.738020 0.291282 0.851916
v 1.202029 0.291282 -1.055469
v 0.468930 3.799680 0.124416
v 0.478316 3.799193 0.162040
v 0.440690 3.800149 0.088126
v 0.394682 3.800581 0.054563
v 0.332674 3.800960 0.025017
v 0.257048 3.801270 0.000623
v 0.170711 3.801501 -0.017680
v 0.076980 3.801643 -0.029190
v -0.020542 3.801692 -0.033464
v -0.118107 3.801643 -0.030339
v -0.211966 3.801501 -0.019933
v -0.298513 3.801270 -0.002648
v -0.374421 3.800960 0.020854
v -0.436773 3.800581 0.049667
v -0.483173 3.800149 0.082686
v -0.511838 3.799680 0.118642
v -0.521667 3.799193 0.156152
v -0.512281 3.798706 0.193775
v -0.484041 3.798237 0.230065
v -0.438033 3.797805 0.263628
v -0.376024 3.797426 0.293174
v -0.300398 3.797115 0.317568
v -0.214061 3.796885 0.335871
v -0.120331 3.796742 0.347381
v -0.022809 3.796694 0.351655
v 0.074756 3.796742 0.348530
v 0.168616 3.796885 0.338124
v 0.255162 3.797115 0.320839
v 0.331070 3.797426 0.297338
v 0.393422 3.797805 0.268524
v 0.439823 3.798237 0.235505
v 0.468488 3.798706 0.199550
v -0.521672 3.867979 0.157044
v -0.512286 3.867979 0.194674
v -0.511843 3.867979 0.119528
v -0.438038 3.867979 0.264539
v -0.484046 3.867979 0.230970
v -0.483178 3.867979 0.083566
v -0.436778 3.867979 0.050542
v -0.376030 3.867979 0.294090
v -0.298518 3.867979 -0.001782
v -0.374426 3.867979 0.021723
v -0.020547 3.867979 -0.032604
v -0.118112 3.867979 -0.029478
v -0.211971 3.867979 -0.019071
v -0.214067 3.867979 0.336794
v -0.300404 3.867979 0.318487
v -0.022815 3.867979 0.352580
v -0.120336 3.867979 0.348306
v 0.074751 3.867979 0.349454
v 0.076975 3.867979 -0.028329
v 0.255157 3.867979 0.321758
v 0.168610 3.867979 0.339047
v 0.170706 3.867979 -0.016817
v 0.331065 3.867979 0.298253
v 0.257043 3.867979 0.001489
v 0.393417 3.867979 0.269435
v 0.394677 3.867979 0.055437
v 0.332669 3.867979 0.025886
v 0.478311 3.867979 0.162932
v 0.468925 3.867979 0.125303
v 0.439817 3.867979 0.236410
v 0.468482 3.867979 0.200448
v 0.440685 3.867979 0.089006
vn -1.0000 -0.0000 -0.0000
vn -0.0000 -0.0000 -1.0000
vn 1.0000 -0.0000 -0.0000
vn -0.0000 -0.0000 1.0000
vn -0.0000 0.1280 -0.9918
vn 0.9932 -0.1166 -0.0000
vn -0.0000 1.0000 -0.0000
vn -0.0000 -1.0000 -0.0000
vn -0.9919 -0.1271 -0.0000
vn -0.0000 -0.1280 0.9918
vn 0.9919 0.1271 -0.0000
vn -0.9932 0.1166 -0.0000
vn -0.0320 0.0130 -0.9994
vn -0.0001 0.9999 0.0130
vn 0.2958 -0.0124 0.9552
vn -0.1102 0.0129 -0.9938
vn 0.4195 -0.0117 0.9077
vn -0.1959 0.0127 -0.9805
vn 0.5798 -0.0105 0.8147
vn -0.9703 -0.0032 0.2420
vn -0.2958 0.0124 -0.9552
vn 0.7819 -0.0080 0.6233
vn -0.7892 -0.0080 0.6140
vn -0.4195 0.0117 -0.9077
vn 0.9673 -0.0032 0.2534
vn -0.5894 -0.0105 0.8078
vn -0.5798 0.0105 -0.8147
vn 0.9703 0.0032 -0.2420
vn -0.4302 -0.0117 0.9027
vn -0.7819 0.0080 -0.6233
vn 0.7892 0.0080 -0.6140
vn -0.3070 -0.0124 0.9516
vn -0.9673 0.0032 -0.2534
vn 0.5894 0.0105 -0.8078
vn -0.2074 -0.0127 0.9782
vn 0.4302 0.0117 -0.9027
vn -0.1219 -0.0129 0.9925
vn 0.3070 0.0124 -0.9516
vn -0.0438 -0.0130 0.9990
vn 0.2074 0.0127 -0.9782
vn 0.0320 -0.0130 0.9994
vn 0.1219 0.0129 -0.9925
vn 0.1102 -0.0129 0.9938
vn 0.0438 0.0130 -0.9990
vn 0.1959 -0.0127 0.9805
vt 0.375000 0.000000
vt 0.375000 1.000000
vt 0.625000 0.000000
vt 0.625000 1.000000
vt 0.875000 0.750000
vt 0.375000 0.250000
vt 0.625000 0.250000
vt 0.875000 0.500000
vt 0.375000 0.750000
vt 0.625000 0.750000
vt 0.375000 0.500000
vt 0.625000 0.500000
vt 0.376791 0.765661
vt 0.375000 0.731489
vt 0.375000 0.018511
vt 0.376791 0.984340
vt 0.592145 0.731490
vt 0.640660 0.750000
vt 0.625000 0.765660
vt 0.592145 0.018511
vt 0.859340 0.750000
vt 0.625000 0.984340
vt 0.592145 0.518511
vt 0.625000 0.484340
vt 0.640660 0.500000
vt 0.592145 0.231489
vt 0.625000 0.265660
vt 0.859340 0.500000
vt 0.376791 0.484340
vt 0.375000 0.518511
vt 0.376791 0.265660
vt 0.375000 0.231489
vt 0.408169 0.282748
vt 0.375000 0.228385
vt 0.591832 0.282748
vt 0.625000 0.228385
vt 0.875000 0.521615
vt 0.376425 0.282748
vt 0.375000 0.228385
vt 0.591832 0.467252
vt 0.625000 0.521615
vt 0.376425 0.467252
vt 0.375000 0.521615
vt 0.408169 0.467252
vt 0.375000 0.521615
vt 0.408169 0.782748
vt 0.375000 0.728385
vt 0.591832 0.782748
vt 0.625000 0.728385
vt 0.376425 0.967252
vt 0.375000 0.021615
vt 0.408169 0.967252
vt 0.375000 0.021615
vt 0.376425 0.782747
vt 0.375000 0.728385
vt 0.591832 0.967252
vt 0.625000 0.021615
vt 0.875000 0.728385
vt 0.414704 0.294305
vt 0.375000 0.213076
vt 0.624642 0.455695
vt 0.625000 0.536924
vt 0.624642 0.294305
vt 0.625000 0.213076
vt 0.875000 0.536924
vt 0.378419 0.294305
vt 0.375000 0.213076
vt 0.414704 0.455695
vt 0.375000 0.536924
vt 0.378419 0.455695
vt 0.375000 0.536924
vt 0.624642 0.955695
vt 0.625000 0.036924
vt 0.875000 0.713076
vt 0.414704 0.794305
vt 0.375000 0.713076
vt 0.624642 0.794305
vt 0.625000 0.713076
vt 0.378419 0.955695
vt 0.375000 0.036924
vt 0.414704 0.955695
vt 0.375000 0.036924
vt 0.378419 0.794305
vt 0.375000 0.713076
vt 0.379169 0.282748
vt 0.375000 0.228385
vt 0.575952 0.282748
vt 0.603385 0.228385
vt 0.424048 0.467253
vt 0.396615 0.521615
vt 0.591832 0.451300
vt 0.646615 0.521615
vt 0.375000 0.228385
vt 0.375000 0.282748
vt 0.375000 0.467252
vt 0.375000 0.521615
vt 0.405424 0.967252
vt 0.375000 0.021615
vt 0.575952 0.782748
vt 0.603385 0.728385
vt 0.424048 0.967252
vt 0.396615 0.021615
vt 0.591832 0.951300
vt 0.853385 0.728385
vt 0.375000 0.021615
vt 0.375000 0.967252
vt 0.375000 0.728385
vt 0.375000 0.782748
vt 0.375000 0.536924
vt 0.376791 0.455695
vt 0.375000 0.213076
vt 0.376791 0.294305
vt 0.624642 0.431858
vt 0.661924 0.536924
vt 0.409345 0.455695
vt 0.375000 0.536924
vt 0.624642 0.931858
vt 0.838076 0.713076
vt 0.445711 0.955695
vt 0.411924 0.036924
vt 0.593634 0.794305
vt 0.588076 0.713076
vt 0.383778 0.794305
vt 0.375000 0.713076
vt 0.376791 0.955695
vt 0.375000 0.036924
vt 0.376791 0.794305
vt 0.375000 0.713076
vt 0.601975 0.226975
vt 0.375000 0.226975
vt 0.375000 0.023025
vt 0.375000 0.715206
vt 0.375000 0.534794
vt 0.398025 0.523025
vt 0.375000 0.750000
vt 0.376791 0.765661
vt 0.375000 0.731489
vt 0.375000 0.000000
vt 0.125000 0.750000
vt 0.375000 1.000000
vt 0.375000 0.018511
vt 0.125000 0.731489
vt 0.376791 0.984340
vt 0.125000 0.500000
vt 0.375000 0.250000
vt 0.125000 0.518511
vt 0.376791 0.265660
vt 0.375000 0.231489
vt 0.375000 0.228385
vt 0.157748 0.500000
vt 0.375000 0.282748
vt 0.375000 0.500000
vt 0.375000 0.467252
vt 0.375000 0.521615
vt 0.342252 0.500000
vt 0.157748 0.750000
vt 0.375000 0.021615
vt 0.375000 0.967252
vt 0.342252 0.750000
vt 0.375000 0.728385
vt 0.375000 0.782748
vt 0.375000 0.536924
vt 0.342252 0.518511
vt 0.376791 0.455695
vt 0.375000 0.213076
vt 0.157748 0.518511
vt 0.376791 0.294305
vt 0.157748 0.731489
vt 0.376791 0.955695
vt 0.375000 0.036924
vt 0.342252 0.731489
vt 0.376791 0.794305
vt 0.375000 0.713076
vt 0.376791 0.484340
vt 0.375000 0.518511
vt 0.296822 0.485388
vt 0.968750 1.000000
vt 0.250000 0.490000
vt 1.000000 1.000000
vt 0.000000 1.000000
vt 0.341844 0.471731
vt 0.937500 1.000000
vt 0.383337 0.449553
vt 0.906250 1.000000
vt 0.419706 0.419706
vt 0.875000 1.000000
vt 0.449553 0.383337
vt 0.843750 1.000000
vt 0.471731 0.341844
vt 0.812500 1.000000
vt 0.485388 0.296822
vt 0.781250 1.000000
vt 0.490000 0.250000
vt 0.750000 1.000000
vt 0.485388 0.203178
vt 0.718750 1.000000
vt 0.471731 0.158156
vt 0.687500 1.000000
vt 0.449553 0.116663
vt 0.656250 1.000000
vt 0.419706 0.080294
vt 0.625000 1.000000
vt 0.383337 0.050447
vt 0.593750 1.000000
vt 0.341844 0.028269
vt 0.562500 1.000000
vt 0.296822 0.014612
vt 0.531250 1.000000
vt 0.250000 0.010000
vt 0.500000 1.000000
vt 0.203178 0.014612
vt 0.468750 1.000000
vt 0.158156 0.028269
vt 0.437500 1.000000
vt 0.116663 0.050447
vt 0.406250 1.000000
vt 0.080294 0.080294
vt 0.375000 1.000000
vt 0.050447 0.116663
vt 0.343750 1.000000
vt 0.028269 0.158156
vt 0.312500 1.000000
vt 0.014612 0.203178
vt 0.281250 1.000000
vt 0.010000 0.250000
vt 0.250000 1.000000
vt 0.014612 0.296822
vt 0.218750 1.000000
vt 0.028269 0.341844
vt 0.187500 1.000000
vt 0.050447 0.383337
vt 0.156250 1.000000
vt 0.080294 0.419706
vt 0.125000 1.000000
vt 0.116663 0.449553
vt 0.093750 1.000000
vt 0.158156 0.471731
vt 0.062500 1.000000
vt 0.203178 0.485388
vt 0.031250 1.000000
vt 0.815209 0.644631
vt 0.500000 1.000000
vt 0.814036 0.649334
vt 0.468750 1.000000
vt 0.813980 0.639941
vt 0.531250 1.000000
vt 0.804755 0.658067
vt 0.406250 1.000000
vt 0.810506 0.653871
vt 0.437500 1.000000
vt 0.810397 0.635446
vt 0.562500 1.000000
vt 0.804597 0.631318
vt 0.593750 1.000000
vt 0.797004 0.661761
vt 0.375000 1.000000
vt 0.787315 0.624777
vt 0.656250 1.000000
vt 0.796803 0.627715
vt 0.625000 1.000000
vt 0.752568 0.620924
vt 0.750000 1.000000
vt 0.764764 0.621315
vt 0.718750 1.000000
vt 0.776496 0.622616
vt 0.687500 1.000000
vt 0.776758 0.667099
vt 0.312500 1.000000
vt 0.787550 0.664811
vt 0.343750 1.000000
vt 0.752852 0.669073
vt 0.250000 1.000000
vt 0.765042 0.668538
vt 0.281250 1.000000
vt 0.740656 0.668682
vt 0.218750 1.000000
vt 0.740378 0.621459
vt 0.781250 1.000000
vt 0.718105 0.665220
vt 0.156250 1.000000
vt 0.728924 0.667381
vt 0.187500 1.000000
vt 0.728662 0.622898
vt 0.812500 1.000000
vt 0.708617 0.662282
vt 0.125000 1.000000
vt 0.717870 0.625186
vt 0.843750 1.000000
vt 0.700823 0.658679
vt 0.093750 1.000000
vt 0.700665 0.631930
vt 0.906250 1.000000
vt 0.708416 0.628236
vt 0.875000 1.000000
vt 0.690211 0.645367
vt 1.000000 1.000000
vt 0.000000 1.000000
vt 0.691384 0.640663
vt 0.968750 1.000000
vt 0.695023 0.654551
vt 0.062500 1.000000
vt 0.691440 0.650056
vt 0.031250 1.000000
vt 0.694914 0.636126
vt 0.937500 1.000000
s 0
usemtl Wood
f 12/20/1 10/15/1 1/1/1 2/3/1 4/7/1 3/6/1 16/32/1 14/26/1
f 19/38/2 3/6/2 4/7/2 8/12/2 7/11/2 21/42/2 22/44/2 43/89/2 20/40/2 44/91/2 18/35/2 42/87/2 17/33/2 41/85/2
f 3/6/2 19/38/2 45/94/2
f 7/11/2 46/95/2 21/42/2
f 13/23/3 15/30/3 7/11/3 8/12/3 6/10/3 5/9/3 9/14/3 11/17/3
f 23/46/4 27/54/4 5/9/4 6/10/4 2/4/4 1/2/4 25/50/4 47/97/4 26/52/4 49/101/4 28/56/4 50/103/4 24/48/4 48/99/4
f 5/9/4 27/54/4 52/108/4
f 1/2/4 51/106/4 25/50/4
f 46/95/5 7/11/5 76/152/5 77/153/5
f 45/93/6 54/111/6 81/165/6 75/149/6
f 120/247/7 2/5/7 6/10/7 146/300/7 141/289/7 139/285/7 136/279/7 137/281/7 134/275/7 132/271/7 133/273/7 130/267/7 131/269/7 124/255/7
f 146/300/7 6/10/7 8/12/7 4/8/7 2/5/7 120/247/7 121/249/7 118/243/7 117/241/7 119/245/7 122/251/7 123/253/7 126/259/7 125/257/7 129/265/7 128/263/7 127/261/7 135/277/7 138/283/7 140/287/7 143/293/7 142/291/7 148/304/7 145/298/7 144/295/7 147/302/7
f 55/113/4 30/61/4 13/24/4 14/27/4 31/63/4
f 31/63/4 14/27/4 16/31/4 54/112/4 32/66/4 29/59/4
f 34/70/4 53/110/4 15/29/4 13/24/4 30/61/4 33/68/4 56/115/4
f 11/18/8 12/21/8 14/28/8 13/25/8
f 35/72/2 12/22/2 11/19/2 37/77/2 57/117/2
f 37/77/2 11/19/2 9/13/2 62/127/2 40/83/2 60/123/2 36/75/2 59/121/2
f 61/125/2 10/16/2 12/22/2 35/72/2 58/119/2 39/81/2 38/79/2
f 53/109/9 46/96/9 77/154/9 80/162/9
f 1/1/1 10/15/1 72/141/1 71/138/1
f 39/82/3 58/120/3 49/102/3 26/53/3
f 28/57/3 49/102/3 58/120/3 35/73/3
f 42/88/3 18/36/3 63/129/3
f 63/129/3 18/36/3 31/64/3 29/60/3 17/34/3 42/88/3
f 22/45/1 68/134/1 43/90/1
f 68/134/1 22/45/1 33/69/1 30/62/1 20/41/1 43/90/1
f 24/49/1 37/78/1 59/122/1 48/100/1
f 36/76/1 23/47/1 48/100/1 59/122/1
f 30/62/8 55/114/8 44/92/8 20/41/8
f 18/37/8 44/92/8 55/114/8 31/65/8
f 35/74/8 57/118/8 50/104/8 28/58/8
f 24/49/8 50/104/8 57/118/8 37/78/8
f 65/131/3 47/98/3 25/51/3 38/80/3 39/82/3 26/53/3
f 26/53/3 47/98/3 65/131/3
f 64/130/3 41/86/3 17/34/3 29/60/3 32/67/3 19/39/3
f 19/39/3 41/86/3 64/130/3
f 67/133/1 33/69/1 22/45/1 21/43/1 34/71/1 56/116/1
f 33/69/1 67/133/1 56/116/1
f 66/132/1 40/84/1 27/55/1 23/47/1 36/76/1 60/124/1
f 40/84/1 66/132/1 60/124/1
f 27/55/1 40/84/1 62/128/1 52/107/1
f 34/71/1 21/43/1 46/96/1 53/109/1
f 61/126/3 38/80/3 25/51/3 51/105/3
f 45/93/3 19/39/3 32/67/3 54/111/3
f 77/155/8 76/152/8 84/175/8 80/163/8
f 74/146/8 73/144/8 75/150/8 81/166/8
f 83/171/8 70/137/8 69/135/8 79/159/8
f 78/156/8 71/139/8 72/142/8 82/168/8
f 10/16/2 61/125/2 82/169/2 72/143/2
f 54/112/10 16/31/10 74/147/10 81/167/10
f 62/127/2 9/13/2 70/136/2 83/172/2
f 61/126/3 51/105/3 78/157/3 82/170/3
f 15/29/10 53/110/10 80/164/10 84/174/10
f 52/107/1 62/128/1 83/173/1 79/160/1
f 7/11/11 15/30/11 84/175/11 76/152/11
f 51/106/4 1/2/4 71/140/4 78/158/4
f 16/32/12 3/6/12 73/145/12 74/148/12
f 9/14/3 5/9/3 69/135/3 70/137/3
f 5/9/4 52/108/4 79/161/4 69/135/4
f 3/6/5 45/94/5 75/151/5 73/145/5
f 110/228/13 109/226/13 132/272/13 134/276/13
f 86/178/14 85/176/14 87/181/14 88/183/14 89/185/14 90/187/14 91/189/14 92/191/14 93/193/14 94/195/14 95/197/14 96/199/14 97/201/14 98/203/14 99/205/14 100/207/14 101/209/14 102/211/14 103/213/14 104/215/14 105/217/14 106/219/14 107/221/14 108/223/14 109/225/14 110/227/14 111/229/14 112/231/14 113/233/14 114/235/14 115/237/14 116/239/14
f 97/202/15 96/200/15 125/258/15 126/260/15
f 111/230/16 110/228/16 134/276/16 137/282/16
f 98/204/17 97/202/17 126/260/17 123/254/17
f 112/232/18 111/230/18 137/282/18 136/280/18
f 99/206/19 98/204/19 123/254/19 122/252/19
f 85/177/20 86/179/20 144/296/20 145/299/20
f 113/234/21 112/232/21 136/280/21 139/286/21
f 100/208/22 99/206/22 122/252/22 119/246/22
f 87/182/23 85/177/23 145/299/23 148/305/23
f 114/236/24 113/234/24 139/286/24 141/290/24
f 101/210/25 100/208/25 119/246/25 117/242/25
f 88/184/26 87/182/26 148/305/26 142/292/26
f 115/238/27 114/236/27 141/290/27 146/301/27
f 102/212/28 101/210/28 117/242/28 118/244/28
f 89/186/29 88/184/29 142/292/29 143/294/29
f 116/240/30 115/238/30 146/301/30 147/303/30
f 103/214/31 102/212/31 118/244/31 121/250/31
f 90/188/32 89/186/32 143/294/32 140/288/32
f 86/180/33 116/240/33 147/303/33 144/297/33
f 104/216/34 103/214/34 121/250/34 120/248/34
f 91/190/35 90/188/35 140/288/35 138/284/35
f 105/218/36 104/216/36 120/248/36 124/256/36
f 92/192/37 91/190/37 138/284/37 135/278/37
f 106/220/38 105/218/38 124/256/38 131/270/38
f 127/262/39 93/194/39 92/192/39 135/278/39
f 107/222/40 106/220/40 131/270/40 130/268/40
f 94/196/41 93/194/41 127/262/41 128/264/41
f 108/224/42 107/222/42 130/268/42 133/274/42
f 95/198/43 94/196/43 128/264/43 129/266/43
f 109/226/44 108/224/44 133/274/44 132/272/44
f 96/200/45 95/198/45 129/266/45 125/258/45
